<svg id="Layer_1" data-name="Layer 1" xmlns="http://www.w3.org/2000/svg" viewBox="0 0 200 200"><defs><style>.cls-1{fill:#231f20;}</style></defs><title>Wondicon - UI (Free)</title><path class="cls-1" d="M100,105H29.31a5,5,0,0,1-5-5V46.14A21.85,21.85,0,0,1,46.14,24.31H100a5,5,0,0,1,5,5V100A5,5,0,0,1,100,105ZM34.31,95H95V34.31H46.14A11.85,11.85,0,0,0,34.31,46.14Z"/><path class="cls-1" d="M80,69.66H49.29a5,5,0,1,1,0-10H80a5,5,0,1,1,0,10Z"/><path class="cls-1" d="M64.66,85a5,5,0,0,1-5-5V49.29a5,5,0,1,1,10,0V80A5,5,0,0,1,64.66,85Z"/><path class="cls-1" d="M170.56,105H99.88a5,5,0,0,1-5-5V29.31a5,5,0,0,1,5-5h53.86a21.85,21.85,0,0,1,21.82,21.83V100A5,5,0,0,1,170.56,105ZM104.88,95h60.68V46.14a11.84,11.84,0,0,0-11.82-11.83H104.88Z"/><path class="cls-1" d="M150.58,69.66H119.85a5,5,0,0,1,0-10h30.73a5,5,0,0,1,0,10Z"/><path class="cls-1" d="M100,174.93H46.14a21.85,21.85,0,0,1-21.83-21.82V99.24a5,5,0,0,1,5-5H100a5,5,0,0,1,5,5v70.69A5,5,0,0,1,100,174.93ZM34.31,104.24v48.87a11.85,11.85,0,0,0,11.83,11.82H95V104.24Z"/><path class="cls-1" d="M75.52,150.45A5,5,0,0,1,72,149L50.26,127.26a5,5,0,1,1,7.07-7.07l21.73,21.73a5,5,0,0,1-3.54,8.53Z"/><path class="cls-1" d="M53.79,150.45a5,5,0,0,1-3.53-8.53L72,120.19a5,5,0,1,1,7.07,7.07L57.33,149A5,5,0,0,1,53.79,150.45Z"/><path class="cls-1" d="M153.74,174.93H99.88a5,5,0,0,1-5-5V99.24a5,5,0,0,1,5-5h70.68a5,5,0,0,1,5,5v53.87A21.85,21.85,0,0,1,153.74,174.93Zm-48.86-10h48.86a11.84,11.84,0,0,0,11.82-11.82V104.24H104.88Z"/><path class="cls-1" d="M150.58,139.59H119.85a5,5,0,0,1,0-10h30.73a5,5,0,0,1,0,10Z"/><path class="cls-1" d="M135.22,124.22a5,5,0,0,1-3.54-1.46,5.1,5.1,0,0,1-.62-.77,5.46,5.46,0,0,1-.46-.86,5,5,0,0,1-.28-.93,4.59,4.59,0,0,1-.1-1,4.73,4.73,0,0,1,.1-1,5,5,0,0,1,.28-.93,6,6,0,0,1,.46-.87,5,5,0,0,1,6.07-1.84,5.46,5.46,0,0,1,.86.46,5.1,5.1,0,0,1,.77.62,5.71,5.71,0,0,1,.62.76,6,6,0,0,1,.46.87,5,5,0,0,1,.28.93,4.73,4.73,0,0,1,.1,1,4.59,4.59,0,0,1-.1,1,5,5,0,0,1-.28.93,5.46,5.46,0,0,1-.46.86,5.87,5.87,0,0,1-.63.77A5,5,0,0,1,135.22,124.22Z"/><path class="cls-1" d="M135.22,155a5,5,0,0,1-5-5,4.66,4.66,0,0,1,.1-1,5,5,0,0,1,.28-.93,5.46,5.46,0,0,1,.46-.86,4.57,4.57,0,0,1,.62-.76,5,5,0,0,1,5.45-1.09,5.46,5.46,0,0,1,.86.46,4.61,4.61,0,0,1,.77.63,5.13,5.13,0,0,1,.62.76,5.46,5.46,0,0,1,.46.86,5,5,0,0,1,.28.93,4.59,4.59,0,0,1,.1,1,4.66,4.66,0,0,1-.1,1,5,5,0,0,1-.28.93,5.46,5.46,0,0,1-.46.86,4.71,4.71,0,0,1-.63.76,4.63,4.63,0,0,1-.76.63,5.46,5.46,0,0,1-.86.46,5,5,0,0,1-.93.28A4.73,4.73,0,0,1,135.22,155Z"/></svg>