<?xml version="1.0" encoding="utf-8"?>
<!DOCTYPE svg PUBLIC "-//W3C//DTD SVG 1.1//EN" "http://www.w3.org/Graphics/SVG/1.1/DTD/svg11.dtd">
<!-- exported from Silhouette Studio Business Edition V4.2.279ssbe -->
<svg version="1.1" xmlns="http://www.w3.org/2000/svg" xmlns:xlink="http://www.w3.org/1999/xlink" width="304.8001mm" height="304.8001mm" viewBox="0 0 304.8001 304.8001">
<defs/>
<g>
<g>
<path d="M 59.03684 289.3524 L 53.34588 289.3524 L 50.25647 286.2794 L 50.25647 280.5955 L 53.34508 277.4994 L 61.86784 277.4994 L 64.95644 280.5944 L 64.95644 284.3822 L 59.64074 284.3822 L 59.64074 282.4666 L 59.03675 281.8434 L 56.20283 281.8434 L 55.57563 282.4672 L 55.57563 284.4077 L 56.20256 285.0084 L 61.86818 285.0084 L 64.95645 288.1051 L 64.95644 293.6976 L 61.86783 296.7711 L 53.34508 296.7711 L 50.25647 293.6981 L 50.25647 290.0012 L 55.57563 290.0012 L 55.57563 291.8033 L 56.20282 292.4271 L 59.03675 292.4271 L 59.64074 291.826 L 59.64074 289.9766 L 59.03684 289.3524 Z" fill="#649332" fill-opacity="1" stroke="#649332" stroke-opacity="1" stroke-width="0.1" stroke-linecap="round" stroke-linejoin="round"/>
<path d="M 82.14092 293.6748 L 79.05232 296.7712 L 70.52956 296.7712 L 67.44096 293.6931 L 67.44096 281.8209 L 66.27985 281.8209 L 66.27985 277.4995 L 73.92249 277.4995 L 73.92249 281.8209 L 72.76022 281.8209 L 72.76021 291.8251 L 73.38741 292.4272 L 76.22133 292.4272 L 76.82532 291.8251 L 76.82533 281.8209 L 75.66306 281.8209 L 75.66306 277.4995 L 83.30204 277.4995 L 83.30204 281.8209 L 82.14092 281.8209 L 82.14092 293.6748 Z" fill="#649332" fill-opacity="1" stroke="#649332" stroke-opacity="1" stroke-width="0.1" stroke-linecap="round" stroke-linejoin="round"/>
<path d="M 91.0787 292.4272 L 92.24097 292.4272 L 92.24097 296.7712 L 84.60401 296.7712 L 84.60401 292.4272 L 85.76512 292.4272 L 85.76513 281.8435 L 84.60402 281.8435 L 84.60402 277.4995 L 96.58691 277.4995 L 99.67552 280.5965 L 99.67552 285.5194 L 98.39826 286.7906 L 99.67552 288.0381 L 99.67551 292.4271 L 100.8366 292.4271 L 100.8366 296.7712 L 94.35574 296.7712 L 94.35574 289.6095 L 93.72819 288.9857 L 91.07871 288.9857 L 91.0787 292.4272 Z M 91.07871 284.6417 L 93.72819 284.6417 L 94.35574 284.0174 L 94.35574 282.4678 L 93.72819 281.8434 L 91.07871 281.8434 L 91.07871 284.6417 Z" fill="#649332" fill-opacity="1" stroke="#649332" stroke-opacity="1" stroke-width="0.1" stroke-linecap="round" stroke-linejoin="round"/>
<path d="M 113.0315 281.8209 L 112.3965 281.8209 L 112.3965 277.4995 L 120.4124 277.4995 L 120.4124 281.8209 L 118.6707 281.8209 L 115.1177 292.4271 L 116.1162 292.4271 L 116.1162 296.7712 L 105.8286 296.7711 L 105.8286 292.4271 L 106.6646 292.4271 L 103.1347 281.8209 L 101.5789 281.8209 L 101.5789 277.4994 L 109.3802 277.4994 L 109.3802 281.8209 L 108.7339 281.8209 L 110.8943 288.2449 L 113.0315 281.8209 Z" fill="#649332" fill-opacity="1" stroke="#649332" stroke-opacity="1" stroke-width="0.1" stroke-linecap="round" stroke-linejoin="round"/>
<path d="M 127.8688 292.4271 L 131.2592 292.4271 L 131.2592 291.6655 L 135.6248 291.6655 L 135.6248 296.7711 L 121.3884 296.7711 L 121.3885 292.4271 L 122.5496 292.4271 L 122.5496 281.8435 L 121.3885 281.8435 L 121.3885 277.4994 L 135.6249 277.4994 L 135.6248 282.6051 L 131.2592 282.6051 L 131.2592 281.8434 L 127.8688 281.8434 L 127.8688 284.9858 L 128.6569 284.9858 L 128.6569 284.2242 L 132.9998 284.2242 L 132.9998 290.0689 L 128.6569 290.0689 L 128.6569 289.3073 L 127.8688 289.3073 L 127.8688 292.4271 Z" fill="#649332" fill-opacity="1" stroke="#649332" stroke-opacity="1" stroke-width="0.1" stroke-linecap="round" stroke-linejoin="round"/>
<path d="M 144.5623 296.7712 L 136.9221 296.7712 L 136.9221 292.4272 L 138.0832 292.4272 L 138.0832 281.8435 L 136.9221 281.8435 L 136.9221 277.4995 L 144.5624 277.4995 L 144.5623 281.8435 L 143.4012 281.8435 L 143.4012 292.4272 L 144.5623 292.4272 L 144.5623 296.7712 Z" fill="#649332" fill-opacity="1" stroke="#649332" stroke-opacity="1" stroke-width="0.1" stroke-linecap="round" stroke-linejoin="round"/>
<path d="M 152.3672 281.8435 L 152.3672 292.4272 L 155.8484 292.4272 L 155.8484 291.2718 L 160.1913 291.2718 L 160.1913 296.7712 L 145.8868 296.7712 L 145.8868 292.4272 L 147.048 292.4272 L 147.048 281.8435 L 145.8868 281.8435 L 145.8869 277.4995 L 153.5271 277.4995 L 153.5271 281.8435 L 152.3672 281.8435 Z" fill="#649332" fill-opacity="1" stroke="#649332" stroke-opacity="1" stroke-width="0.1" stroke-linecap="round" stroke-linejoin="round"/>
<path d="M 167.6695 281.8435 L 167.6695 292.4272 L 171.1506 292.4272 L 171.1506 291.2718 L 175.4936 291.2718 L 175.4936 296.7712 L 161.1891 296.7712 L 161.1891 292.4272 L 162.3503 292.4272 L 162.3503 281.8435 L 161.1891 281.8435 L 161.1891 277.4995 L 168.8294 277.4995 L 168.8294 281.8435 L 167.6695 281.8435 Z" fill="#649332" fill-opacity="1" stroke="#649332" stroke-opacity="1" stroke-width="0.1" stroke-linecap="round" stroke-linejoin="round"/>
<path d="M 191.3539 277.4994 L 191.3539 281.8434 L 190.3786 281.8434 L 194.6283 292.4271 L 195.7894 292.4271 L 195.7894 296.7711 L 188.3578 296.7711 L 188.3578 292.4271 L 188.9851 292.4271 L 188.7065 291.5696 L 183.5743 291.5696 L 183.2724 292.4271 L 183.9016 292.4271 L 183.9016 296.7711 L 176.4914 296.7711 L 176.4914 292.4271 L 177.6525 292.4271 L 181.9022 281.8434 L 181.0662 281.8434 L 181.0662 277.4994 L 191.3539 277.4994 Z M 184.8994 287.8743 L 187.36 287.8743 L 186.1297 284.8222 L 184.8994 287.8743 Z" fill="#649332" fill-opacity="1" stroke="#649332" stroke-opacity="1" stroke-width="0.1" stroke-linecap="round" stroke-linejoin="round"/>
<path d="M 208.4459 296.7711 L 203.244 288.1508 L 203.244 292.4271 L 204.4051 292.4271 L 204.4051 296.7711 L 196.7649 296.7711 L 196.7649 292.4271 L 197.926 292.4271 L 197.926 281.8435 L 196.7649 281.8435 L 196.7649 277.4994 L 203.0582 277.4994 L 208.3762 286.3285 L 208.3762 281.8434 L 207.2151 281.8434 L 207.2151 277.4994 L 214.8554 277.4994 L 214.8553 281.8434 L 213.6942 281.8434 L 213.6942 292.4271 L 214.8553 292.4271 L 214.8553 296.7711 L 208.4459 296.7711 Z" fill="#649332" fill-opacity="1" stroke="#649332" stroke-opacity="1" stroke-width="0.1" stroke-linecap="round" stroke-linejoin="round"/>
<path d="M 230.8776 284.9181 L 225.5619 284.9181 L 225.5619 282.4677 L 224.9579 281.8434 L 222.124 281.8434 L 221.4968 282.4674 L 221.4968 291.8263 L 222.124 292.4271 L 224.9579 292.4271 L 225.5619 291.8264 L 225.5619 289.5161 L 230.8776 289.5161 L 230.8776 293.6982 L 227.789 296.7711 L 219.2662 296.7711 L 216.1776 293.6979 L 216.1776 280.5959 L 219.2662 277.4994 L 227.789 277.4994 L 230.8776 280.5963 L 230.8776 284.9181 Z" fill="#649332" fill-opacity="1" stroke="#649332" stroke-opacity="1" stroke-width="0.1" stroke-linecap="round" stroke-linejoin="round"/>
<path d="M 238.7777 292.4271 L 242.1681 292.4271 L 242.1681 291.6655 L 246.5337 291.6655 L 246.5337 296.7711 L 232.2973 296.7711 L 232.2974 292.4271 L 233.4585 292.4271 L 233.4585 281.8435 L 232.2974 281.8435 L 232.2974 277.4994 L 246.5337 277.4994 L 246.5337 282.605 L 242.1681 282.605 L 242.1681 281.8434 L 238.7777 281.8434 L 238.7777 284.9858 L 239.5658 284.9858 L 239.5658 284.2242 L 243.9087 284.2242 L 243.9087 290.0689 L 239.5658 290.0689 L 239.5658 289.3073 L 238.7777 289.3073 L 238.7777 292.4271 Z" fill="#649332" fill-opacity="1" stroke="#649332" stroke-opacity="1" stroke-width="0.1" stroke-linecap="round" stroke-linejoin="round"/>
</g>
<g>
<path d="M 86.56201 173.6126 L 79.50137 180.7145 L 60.01814 180.7145 L 52.95749 173.6546 L 52.9575 146.4241 L 50.30315 146.4241 L 50.30315 136.5123 L 67.77442 136.5123 L 67.77442 146.4241 L 65.11744 146.4241 L 65.11743 169.37 L 66.55122 170.7509 L 73.02964 170.7509 L 74.41039 169.37 L 74.41039 146.4241 L 71.75341 146.4241 L 71.75341 136.5123 L 89.21638 136.5123 L 89.21638 146.4241 L 86.56203 146.4241 L 86.56201 173.6126 Z" fill="#649332" fill-opacity="1" stroke="#649332" stroke-opacity="1" stroke-width="0.1" stroke-linecap="round" stroke-linejoin="round"/>
<path d="M 118.8934 180.7145 L 107.0017 160.9426 L 107.0017 170.7509 L 109.6561 170.7509 L 109.6561 180.7145 L 92.19028 180.7145 L 92.19028 170.7509 L 94.84463 170.7509 L 94.84463 146.4759 L 92.19028 146.4759 L 92.19029 136.5123 L 106.5771 136.5123 L 118.7342 156.763 L 118.7342 146.4759 L 116.0798 146.4759 L 116.0798 136.5123 L 133.5456 136.5123 L 133.5456 146.4759 L 130.8913 146.4759 L 130.8913 170.7509 L 133.5456 170.7509 L 133.5456 180.7145 L 118.8934 180.7145 Z" fill="#649332" fill-opacity="1" stroke="#649332" stroke-opacity="1" stroke-width="0.1" stroke-linecap="round" stroke-linejoin="round"/>
<path d="M 136.5165 136.5123 L 163.9097 136.5123 L 170.9704 143.6144 L 170.9704 173.6656 L 163.9098 180.7145 L 136.5165 180.7145 L 136.5165 170.7509 L 139.1709 170.7509 L 139.1709 146.4759 L 136.5165 146.4759 L 136.5165 136.5123 Z M 151.3203 170.7509 L 157.3771 170.7509 L 158.8117 169.3728 L 158.8117 147.9069 L 157.377 146.4759 L 151.3203 146.4759 L 151.3203 170.7509 Z" fill="#649332" fill-opacity="1" stroke="#649332" stroke-opacity="1" stroke-width="0.1" stroke-linecap="round" stroke-linejoin="round"/>
<path d="M 189.0235 170.7509 L 196.7741 170.7509 L 196.7741 169.004 L 206.754 169.004 L 206.754 180.7145 L 174.2092 180.7145 L 174.2092 170.7509 L 176.8636 170.7509 L 176.8635 146.4759 L 174.2092 146.4759 L 174.2092 136.5123 L 206.754 136.5123 L 206.754 148.2228 L 196.7741 148.2228 L 196.7741 146.4759 L 189.0235 146.4759 L 189.0235 153.6833 L 190.825 153.6833 L 190.825 151.9364 L 200.7531 151.9364 L 200.7531 165.3421 L 190.825 165.3421 L 190.825 163.5952 L 189.0235 163.5952 L 189.0235 170.7509 Z" fill="#649332" fill-opacity="1" stroke="#649332" stroke-opacity="1" stroke-width="0.1" stroke-linecap="round" stroke-linejoin="round"/>
<path d="M 224.5233 170.7509 L 227.1803 170.7509 L 227.1803 180.7145 L 209.722 180.7145 L 209.722 170.7509 L 212.3763 170.7509 L 212.3763 146.4759 L 209.722 146.4759 L 209.722 136.5123 L 237.1152 136.5123 L 244.1758 143.6158 L 244.1758 154.9072 L 241.256 157.8228 L 244.1758 160.6839 L 244.1758 170.7509 L 246.8302 170.7509 L 246.8302 180.7145 L 232.0147 180.7145 L 232.0147 164.2883 L 230.5801 162.8576 L 224.5233 162.8576 L 224.5233 170.7509 Z M 224.5233 152.894 L 230.5801 152.894 L 232.0147 151.4619 L 232.0147 147.908 L 230.5801 146.4759 L 224.5233 146.4759 L 224.5233 152.894 Z" fill="#649332" fill-opacity="1" stroke="#649332" stroke-opacity="1" stroke-width="0.1" stroke-linecap="round" stroke-linejoin="round"/>
</g>
</g>
<g>
<path d="M 78.67267 252.1312 L 93.44835 252.1312 L 93.44835 248.801 L 112.4739 248.801 L 112.4739 271.1259 L 50.43088 271.1259 L 50.43088 252.1312 L 55.4911 252.1312 L 55.49112 205.8532 L 50.4309 205.8532 L 50.43091 186.8585 L 112.4739 186.8585 L 112.4739 209.1834 L 93.44836 209.1834 L 93.44836 205.8532 L 78.6727 205.8532 L 78.67269 219.5936 L 82.10717 219.5935 L 82.10717 216.2633 L 101.0339 216.2633 L 101.0339 241.8198 L 82.10718 241.8198 L 82.10717 238.4895 L 78.67268 238.4896 L 78.67267 252.1312 Z" fill="#CA141F" fill-opacity="1" stroke="#CA141F" stroke-opacity="1" stroke-width="0.1" stroke-linecap="round" stroke-linejoin="round"/>
<path d="M 146.3739 205.8532 L 146.3739 252.1312 L 161.5449 252.1312 L 161.5449 247.0792 L 180.4716 247.0792 L 180.4716 271.1259 L 118.1321 271.1259 L 118.1321 252.1312 L 123.1923 252.1312 L 123.1924 205.8532 L 118.1321 205.8532 L 118.1321 186.8585 L 151.4288 186.8585 L 151.4288 205.8532 L 146.3739 205.8532 Z" fill="#CA141F" fill-opacity="1" stroke="#CA141F" stroke-opacity="1" stroke-width="0.1" stroke-linecap="round" stroke-linejoin="round"/>
<path d="M 216.4966 238.4895 L 213.0621 238.4895 L 213.0621 252.1312 L 222.7726 252.1312 L 222.7726 271.1259 L 184.8203 271.1259 L 184.8203 252.1312 L 189.8805 252.1312 L 189.8806 205.8532 L 184.8203 205.8532 L 184.8203 186.8585 L 246.8633 186.8585 L 246.8634 209.1834 L 227.8378 209.1834 L 227.8378 205.8532 L 213.0622 205.8532 L 213.0621 219.5935 L 216.4966 219.5935 L 216.4966 216.2633 L 235.4234 216.2633 L 235.4233 241.8198 L 216.4966 241.8198 L 216.4966 238.4895 Z" fill="#CA141F" fill-opacity="1" stroke="#CA141F" stroke-opacity="1" stroke-width="0.1" stroke-linecap="round" stroke-linejoin="round"/>
</g>
<path d="M 206.0145 93.59177 C 205.9606 93.61105 204.6305 94.05435 199.9752 95.81082 C 199.881 95.84641 198.233 96.47659 189.3806 99.85904 C 184.4417 93.67221 184.4156 93.68881 178.93 86.29001 C 176.104 82.47867 174.7913 80.64157 173.1168 80.39993 C 170.8908 80.07864 168.122 82.82333 165.5356 85.02017 C 164.7485 85.68887 158.2921 91.04929 154.384 94.32492 C 154.2775 94.41428 154.7296 94.03384 148.4018 99.36191 C 139.3754 91.54172 147.0302 97.9772 139.881 92.09866 C 132.8885 86.34891 131.5549 83.36435 125.2263 79.94833 C 123.823 80.03915 124.4049 79.79147 122.6653 80.81699 C 120.8661 83.47543 120.5562 83.9744 113.4407 99.27707 C 110.1067 97.26041 105.1121 94.19119 97.53076 91.09067 C 111.7574 49.82373 131.5298 24.21857 156.8478 14.27515 C 174.6148 7.297363 198.2017 3.802582 218.1276 11.24307 C 229.0546 15.32346 242.5297 23.70425 243.9091 42.3157 C 244.3004 47.59561 243.8651 55.565 233.0812 60.62607 C 225.3252 64.26614 220.1622 62.75186 212.2766 56.63467 C 213.551 55.2493 219.2377 49.4455 219.5898 48.45105 C 220.0967 47.01971 221.4835 37.87894 212.4651 36.1499 C 206.481 35.00256 199.4498 37.0986 196.2507 44.70865 C 194.1802 49.63394 195.9753 54.76913 196.8021 56.96274 C 198.1924 60.6517 201.2632 72.86148 206.0145 93.59177 Z" fill="#649332" fill-opacity="1" stroke="#649332" stroke-opacity="1" stroke-width="0.1" stroke-linecap="round" stroke-linejoin="round"/>
<g>
<path d="M 206.9558 130.1256 C 206.4693 129.7618 205.7571 129.2611 205.3731 129.0127 C 204.989 128.7644 204.6732 128.5203 204.6711 128.4703 C 204.6618 128.2475 199.2449 125.045 196.74 123.7812 C 195.9591 123.3873 194.3085 122.6322 193.0722 122.1035 C 191.8358 121.5747 190.7887 121.0965 190.7453 121.0408 C 190.7019 120.9852 190.5245 120.9397 190.351 120.9397 C 190.1774 120.9397 190 120.892 189.9566 120.8341 C 189.8482 120.6889 186.7529 119.5907 186.4522 119.5907 C 186.3189 119.5907 186.2099 119.5371 186.2099 119.4716 C 186.2099 119.4061 186.0235 119.3183 185.7958 119.2765 C 185.5681 119.2349 184.7961 119.0055 184.0802 118.7667 C 182.4238 118.2145 180.6024 117.7022 180.2952 117.7022 C 180.1644 117.7022 180.057 117.6566 180.0565 117.601 C 180.056 117.5453 179.5503 117.3839 178.9326 117.2424 C 178.315 117.1008 177.3834 116.8798 176.8629 116.7515 C 174.5133 116.1718 168.978 115.103 167.0427 114.8552 C 164.4257 114.52 163.7586 114.4451 162.3596 114.3283 C 161.5408 114.26 160.7953 114.1774 160.7027 114.1447 C 160.6102 114.1123 158.9373 113.9811 156.9854 113.8535 C 153.4373 113.6215 153.2157 113.6214 140.5034 113.8388 C 139.8976 113.8492 139.4512 113.9032 139.5116 113.9589 C 139.5719 114.0145 139.3427 114.06 139.0022 114.06 C 138.6616 114.06 137.9367 114.1157 137.3909 114.1839 C 136.8452 114.2518 135.7599 114.3819 134.979 114.4729 C 133.0483 114.6976 129.1709 115.2577 128.59 115.3958 C 128.3296 115.4577 127.3713 115.644 126.4603 115.8095 C 125.5493 115.9751 124.4844 116.1917 124.0939 116.291 C 123.7035 116.39 122.6918 116.6326 121.8459 116.8299 C 119.3084 117.4217 115.9539 118.3762 113.4826 119.2098 C 112.2014 119.6419 111.0569 119.9954 110.9388 119.9954 C 110.8207 119.9954 110.7242 120.0458 110.7242 120.1075 C 110.7242 120.1691 110.4314 120.3045 110.0735 120.4083 C 109.4533 120.5882 107.8988 121.1917 107.648 121.3501 C 107.5829 121.3912 107.1571 121.5696 106.7014 121.7469 C 106.2459 121.9241 105.5465 122.2246 105.1473 122.4149 C 104.7481 122.6051 103.8962 123.0004 103.2543 123.2935 C 101.2727 124.1978 94.85147 127.9643 93.56842 128.9749 C 93.30801 129.1799 92.98267 129.4136 92.84518 129.4941 C 92.7077 129.5746 92.39194 129.8376 92.1434 130.0789 C 91.53577 130.6684 91.08374 130.6462 91.08374 130.0269 C 91.08374 129.7571 90.97772 129.1653 90.84808 128.7116 C 90.58823 127.8019 89.71661 124.8607 89.42422 123.9073 C 89.32184 123.5734 89.06442 122.7236 88.85242 122.0188 C 88.64041 121.3137 88.37335 120.4642 88.25906 120.1303 C 88.14481 119.7965 87.93036 119.159 87.78235 118.7139 C 87.23425 117.0642 86.52066 115.0484 86.09946 113.9589 C 85.9776 113.6436 85.78311 113.1275 85.66718 112.8122 C 85.22733 111.6158 84.93637 110.8597 84.56387 109.9458 C 84.35214 109.4265 84.09335 108.7283 83.98874 108.3944 C 83.73428 107.582 82.79962 105.4266 82.55573 105.0895 C 82.44839 104.9411 82.31146 104.6375 82.2515 104.4151 C 82.19153 104.1924 81.85641 103.4033 81.50671 102.6614 C 81.15704 101.9194 80.78137 101.0999 80.67151 100.8403 C 80.43872 100.2896 80.33932 100.0822 79.57074 98.54713 C 79.25504 97.91646 78.8945 97.295 78.76947 97.16628 C 78.64435 97.03743 78.54218 96.82283 78.54218 96.68959 C 78.54218 96.209 74.59967 90.16573 74.22455 90.07118 C 74.12646 90.04652 74.04611 89.87953 74.04611 89.70021 C 74.04611 89.52089 73.93964 89.37422 73.80954 89.37422 C 73.67944 89.37422 73.57288 89.2524 73.57288 89.10329 C 73.57288 88.88582 73.65463 88.85799 73.98697 88.96187 C 74.51523 89.12703 75.5047 89.35927 78.30545 89.97523 C 79.5419 90.24709 80.81973 90.53468 81.14505 90.6144 C 81.47043 90.69405 81.94962 90.80629 82.20996 90.86372 C 82.47031 90.92134 84.35129 91.42915 86.38989 91.99245 C 88.42853 92.55568 90.20288 93.01631 90.33282 93.01631 C 90.46283 93.01631 91.10712 93.21364 91.7648 93.45473 C 92.42236 93.69594 93.53323 94.0923 94.23315 94.33565 C 94.93311 94.57906 95.75803 94.91292 96.06659 95.07765 C 96.37509 95.24226 96.79898 95.4377 97.00864 95.51204 C 98.21768 95.93959 99.57806 96.51027 100.2284 96.86256 C 100.6377 97.08418 101.2615 97.38698 101.6147 97.53529 C 103.1789 98.19252 109.7776 101.7574 109.7776 101.9454 C 109.7776 101.9796 110.4282 102.3976 111.2234 102.8742 C 112.0185 103.3507 112.9362 103.9378 113.2628 104.179 C 113.5894 104.4199 114.0486 104.6173 114.2833 104.6173 C 114.8151 104.6173 114.8592 104.5412 116.6586 100.5031 C 117.4522 98.72243 118.1939 97.08339 118.3069 96.86086 C 118.4202 96.63826 118.6807 96.06172 118.8861 95.57942 C 119.0916 95.09712 119.3263 94.61153 119.408 94.50026 C 119.5916 94.25026 120.2998 92.85811 120.8834 91.59999 C 121.1243 91.08058 121.5513 90.20039 121.832 89.64394 C 122.1126 89.08754 122.5441 88.18465 122.791 87.63753 C 123.0378 87.09041 123.3964 86.45302 123.588 86.22115 C 123.7796 85.98915 124.0137 85.55666 124.1084 85.2599 C 124.2666 84.76357 124.5448 84.52528 124.9716 84.5201 C 125.2021 84.51717 126.3419 85.22902 126.3419 85.37587 C 126.3419 85.44106 127.2298 86.26112 128.315 87.19832 C 131.5283 89.97285 133.6593 91.88753 133.8341 92.15688 C 133.9243 92.29579 134.0717 92.43971 134.1618 92.47688 C 134.3397 92.55006 138.6974 96.2729 139.5697 97.09694 C 139.8642 97.37514 140.203 97.60274 140.3226 97.60274 C 140.4421 97.60274 140.5399 97.68947 140.5399 97.79549 C 140.5399 97.90144 140.6729 98.071 140.8356 98.17213 C 141.1493 98.36726 141.4816 98.64522 142.1438 99.26637 C 142.3679 99.47652 143.2168 100.2255 144.0301 100.9307 C 144.8435 101.6358 145.5091 102.2589 145.5091 102.3151 C 145.5091 102.3713 145.7221 102.527 145.9824 102.6614 C 146.2427 102.7955 146.4556 102.9658 146.4556 103.0393 C 146.4556 103.2491 148.1115 104.3479 148.4237 104.3453 C 148.7202 104.3427 149.7686 103.7681 149.7686 103.608 C 149.7686 103.5561 150.2106 103.1397 150.7511 102.6828 C 151.2914 102.2258 152.0564 101.5789 152.4508 101.245 C 152.8452 100.9111 153.814 100.1042 154.6037 99.45192 C 155.3933 98.79958 156.1458 98.15938 156.276 98.02895 C 156.4061 97.89864 156.8587 97.54335 157.2817 97.23952 C 157.7045 96.93568 158.0507 96.64149 158.0507 96.58559 C 158.0507 96.52962 158.4028 96.23494 158.8335 95.93056 C 159.2641 95.62617 159.8538 95.15358 160.144 94.88075 C 160.4342 94.60774 160.7473 94.36488 160.84 94.34114 C 160.9328 94.3174 161.64 93.75154 162.4118 93.08382 C 163.1835 92.41609 164.1189 91.6573 164.4904 91.3976 C 165.58 90.63625 165.6229 90.60323 165.6229 90.5251 C 165.6229 90.48409 165.9955 90.14833 166.4511 89.77888 C 166.9066 89.40938 167.2793 89.04579 167.2793 88.97084 C 167.2793 88.89589 167.3644 88.83455 167.4685 88.83455 C 167.5726 88.83455 168.2248 88.33376 168.9178 87.72169 C 169.6107 87.10957 170.3773 86.44441 170.6215 86.24336 C 170.8657 86.04237 171.0655 85.84261 171.0655 85.79951 C 171.0655 85.55983 172.1735 84.92268 172.5903 84.92268 C 173.0765 84.92268 173.7724 85.60139 174.4259 86.71297 C 174.5668 86.95247 174.8095 87.23952 174.9654 87.35085 C 175.1212 87.46205 175.5415 87.97804 175.8995 88.49739 C 176.5604 89.45631 176.7771 89.75002 177.666 90.89034 C 177.9401 91.24196 178.1643 91.55904 178.1643 91.59492 C 178.1643 91.63087 178.5371 92.09688 178.9926 92.63045 C 179.4483 93.16408 179.8208 93.73787 179.8208 93.9059 C 179.8208 94.07381 179.9805 94.30226 180.1757 94.41353 C 180.371 94.5248 180.5308 94.68782 180.5308 94.77577 C 180.5308 94.86372 180.7365 95.15633 180.988 95.4261 C 181.5618 96.04146 183.1336 98.07643 183.1336 98.20381 C 183.1336 98.256 183.6763 98.94643 184.3394 99.73817 C 185.0026 100.5297 185.7531 101.4507 186.007 101.7846 C 186.2611 102.1184 186.6768 102.616 186.931 102.8905 C 187.185 103.1648 187.393 103.5138 187.393 103.666 C 187.393 103.8183 187.5021 103.9429 187.6355 103.9429 C 187.7689 103.9429 187.9791 104.0946 188.1029 104.2801 C 188.3612 104.6674 189.2826 104.7425 189.7594 104.4151 C 189.9214 104.3037 190.2006 104.2126 190.38 104.2126 C 190.5592 104.2126 190.7059 104.156 190.7059 104.0869 C 190.7059 104.0177 190.9002 103.9259 191.1375 103.8829 C 191.3748 103.84 191.7955 103.6846 192.0722 103.5376 C 192.3489 103.3907 192.8978 103.1638 193.2921 103.0333 C 193.6865 102.9029 194.7301 102.516 195.6112 102.1734 C 196.4924 101.8308 198.1186 101.2076 199.2248 100.7887 C 200.3309 100.3697 202.1414 99.66383 203.2476 99.22005 C 204.3539 98.77626 205.5517 98.34645 205.9096 98.26466 C 206.2675 98.18288 206.5603 98.06532 206.5603 98.00343 C 206.5603 97.94142 206.7802 97.85097 207.0491 97.80238 C 207.3179 97.75349 207.9005 97.53242 208.3436 97.31068 C 208.7867 97.08882 209.2518 96.94356 209.377 96.98775 C 209.5023 97.03188 209.9579 96.94606 210.3895 96.79689 C 210.8213 96.64784 211.3342 96.48421 211.5295 96.43336 C 211.7247 96.38258 212.2572 96.20949 212.7127 96.04878 C 213.1682 95.88814 213.6741 95.78261 213.8369 95.81416 C 213.9995 95.84578 214.1348 95.79066 214.1375 95.69179 C 214.1403 95.59285 214.9122 95.29298 215.853 95.02547 C 216.7939 94.75777 218.8348 94.16725 220.3884 93.71297 C 221.9419 93.25862 223.262 92.91487 223.3219 92.94893 C 223.3817 92.98305 223.1892 93.36116 222.8943 93.78932 C 221.7683 95.42336 221.468 95.92043 221.468 96.15071 C 221.468 96.28157 221.3616 96.38881 221.2315 96.38881 C 221.1014 96.38881 220.9949 96.4781 220.9949 96.58736 C 220.9949 96.69667 220.6355 97.40993 220.1959 98.17238 C 219.4768 99.42036 219.0466 100.2615 218.0395 102.3915 C 217.8642 102.7626 217.4811 103.5516 217.1884 104.1452 C 216.8955 104.7388 216.5747 105.4367 216.475 105.6965 C 216.3753 105.9562 216.173 106.4114 216.0255 106.7082 C 215.8782 107.005 215.6687 107.4603 215.56 107.7199 C 215.2761 108.3983 214.3933 110.403 214.134 110.9575 C 213.7741 111.7274 213.1796 113.2022 212.8396 114.1687 C 212.6649 114.6654 212.2343 115.8609 211.8823 116.8253 C 211.5303 117.7899 211.1525 118.8823 211.0427 119.2535 C 210.9331 119.6244 210.7412 120.2313 210.6163 120.6024 C 209.271 124.5997 208.5297 127.4128 208.309 129.3582 C 208.2199 130.1439 208.078 130.787 207.9938 130.787 C 207.9096 130.787 207.4425 130.4893 206.9558 130.1256 Z" fill="#CA141F" fill-opacity="1" stroke="#CA141F" stroke-opacity="1" stroke-width="0.1" stroke-linecap="round" stroke-linejoin="round"/>
<path d="M 214.6259 48.26701 C 214.6259 52.21535 211.4187 55.42261 207.4703 55.42261 C 203.522 55.42261 200.3148 52.21535 200.3148 48.26701 C 200.3148 44.31868 203.522 41.11142 207.4703 41.11142 C 211.4187 41.11142 214.6259 44.31868 214.6259 48.26701 Z" fill="#CA141F" fill-opacity="1" stroke="#CA141F" stroke-opacity="1" stroke-width="0.1" stroke-linecap="round" stroke-linejoin="round"/>
</g>
</svg>