<svg width="303" height="59" viewBox="0 0 303 59" fill="none" xmlns="http://www.w3.org/2000/svg">
<g clip-path="url(#clip0)">
<path d="M69.8556 18.5616C69.8556 16.7212 69.8321 15.2818 69.7383 13.8661H72.0842L72.178 16.8627H72.2719C72.9991 14.7628 74.6882 13.5122 76.5414 13.5122C76.8464 13.5122 77.081 13.5358 77.339 13.6066V16.0841C77.0341 16.0133 76.7291 15.9897 76.3303 15.9897C74.3832 15.9897 73.0226 17.3818 72.6472 19.4346C72.5768 19.7885 72.5299 20.2132 72.5299 20.6144V28.1412H69.8556V18.5616V18.5616Z" fill="#141006"/>
<path d="M81.632 21.5582C81.7024 24.7671 84.0718 26.3952 86.9807 26.3952C89.1155 26.3952 90.3588 26.0413 91.4379 25.5929L91.9071 27.5042C90.9688 27.9053 89.2797 28.4952 86.6523 28.4952C81.9839 28.4952 79.075 25.5222 79.075 21.275C79.075 17.0515 81.7963 13.5122 86.3708 13.5122C91.5787 13.5122 92.7986 17.9245 92.7986 20.3548C92.7986 20.8975 92.7516 21.2986 92.7047 21.5582H81.632V21.5582ZM90.2181 19.6234C90.2415 18.3964 89.6785 15.3998 86.1831 15.3998C83.1569 15.3998 81.9136 17.8773 81.679 19.6234H90.2181Z" fill="#141006"/>
<path d="M97.5844 11.1528C96.5522 11.1528 95.8953 10.3506 95.8953 9.45398C95.8953 8.55736 96.5991 7.75513 97.6313 7.75513C98.6635 7.75513 99.3438 8.53377 99.3438 9.45398C99.3438 10.3506 98.6869 11.1528 97.6078 11.1528H97.5844ZM96.2941 28.1178V13.8663H98.9685V28.1414H96.2941V28.1178Z" fill="#141006"/>
<path d="M103.637 17.7595C103.637 16.3438 103.59 15.0461 103.52 13.8427H105.912L106.077 16.391H106.147C106.874 14.9989 108.681 13.4888 111.308 13.4888C113.255 13.4888 116.821 14.5741 116.821 19.9539V28.1178H114.146V20.2134C114.146 17.7123 113.091 15.6831 110.44 15.6831C108.493 15.6831 107.038 17.028 106.522 18.4674C106.405 18.7741 106.335 19.246 106.335 19.6471V28.1178H103.66V17.7595H103.637Z" fill="#141006"/>
<path d="M134.86 7V24.3661C134.86 25.7346 134.907 27.1031 134.978 28.1413H132.561L132.444 25.4514H132.374C131.482 27.2447 129.535 28.4952 126.955 28.4952C123.178 28.4952 120.222 25.475 120.222 21.2751C120.199 16.6032 123.412 13.5123 127.283 13.5123C129.84 13.5123 131.459 14.7156 132.116 15.8482H132.186V7H134.86ZM132.186 19.7886C132.186 19.4347 132.139 18.9628 132.045 18.6324C131.553 16.9336 129.981 15.5651 127.776 15.5651C124.843 15.5651 122.92 17.8302 122.92 21.0627C122.92 23.9177 124.562 26.3245 127.752 26.3245C129.817 26.3245 131.6 24.8852 132.045 22.9739C132.139 22.62 132.186 22.2425 132.186 21.7942V19.7886Z" fill="#141006"/>
<path d="M140.935 21.5582C141.006 24.7671 143.375 26.3952 146.284 26.3952C148.419 26.3952 149.662 26.0413 150.741 25.5929L151.21 27.5042C150.272 27.9053 148.583 28.4952 145.955 28.4952C141.287 28.4952 138.378 25.5222 138.378 21.275C138.378 17.0515 141.099 13.5122 145.674 13.5122C150.882 13.5122 152.102 17.9245 152.102 20.3548C152.102 20.8975 152.055 21.2986 152.008 21.5582H140.935V21.5582ZM149.498 19.6234C149.521 18.3964 148.958 15.3998 145.463 15.3998C142.437 15.3998 141.193 17.8773 140.959 19.6234H149.498Z" fill="#141006"/>
<path d="M156.983 21.5582C157.053 24.7671 159.422 26.3952 162.331 26.3952C164.466 26.3952 165.709 26.0413 166.789 25.5929L167.258 27.5042C166.319 27.9053 164.63 28.4952 161.979 28.4952C157.311 28.4952 154.402 25.5222 154.402 21.275C154.402 17.0515 157.123 13.5122 161.698 13.5122C166.906 13.5122 168.126 17.9245 168.126 20.3548C168.126 20.8975 168.079 21.2986 168.032 21.5582H156.983V21.5582ZM165.569 19.6234C165.592 18.3964 165.029 15.3998 161.534 15.3998C158.531 15.3998 157.264 17.8773 157.03 19.6234H165.569Z" fill="#141006"/>
<path d="M171.643 18.5616C171.643 16.7212 171.62 15.2818 171.526 13.8661H173.872L173.966 16.8627H174.06C174.787 14.7628 176.476 13.5122 178.329 13.5122C178.634 13.5122 178.869 13.5358 179.127 13.6066V16.0841C178.822 16.0133 178.517 15.9897 178.118 15.9897C176.171 15.9897 174.81 17.3818 174.435 19.4346C174.365 19.7885 174.318 20.2132 174.318 20.6144V28.1412H171.643V18.5616Z" fill="#141006"/>
<path d="M80.8585 50.9814C80.8585 52.2319 80.9289 53.4117 81.0931 54.4027H78.7237L78.4657 52.5387H78.3953C77.5742 53.6476 75.9086 54.7566 73.6331 54.7566C70.5131 54.7566 69.0586 52.6094 69.0586 50.7218C69.0586 47.3713 72.1083 45.3893 78.2311 45.4601V45.2005C78.2311 44.3039 77.973 41.9444 74.7357 41.9444C73.2812 41.9444 71.7564 42.3691 70.6538 43.1006L70.0439 41.3545C71.381 40.5051 73.2108 40.0332 75.0876 40.0332C79.8263 40.0332 80.8116 43.3365 80.8116 46.0264V50.9814H80.8585ZM78.3015 47.2769C75.0172 47.2061 71.7329 47.7724 71.7329 50.3915C71.7329 52.0196 72.8824 52.8218 74.3134 52.8218C76.4482 52.8218 77.715 51.5241 78.1607 50.3915C78.2545 50.1083 78.3015 49.8252 78.3015 49.5893V47.2769Z" fill="#A0CF67"/>
<path d="M98.1229 50.5567C98.1229 51.996 98.1698 53.2702 98.2402 54.4027H95.8943L95.7535 51.8309H95.6832C94.9794 53.105 93.3607 54.7567 90.5222 54.7567C88.4343 54.7567 85.2439 53.7421 85.2439 48.3624V40.3872H87.8948V47.8669C87.8948 50.6983 88.88 52.5623 91.4136 52.5623C93.2434 52.5623 94.6275 51.3826 95.214 50.0612C95.3547 49.7073 95.472 49.2354 95.472 48.7399V40.3872H98.0994V50.5567H98.1229Z" fill="#A0CF67"/>
<path d="M105.936 36.9895V40.3636H109.901V42.3692H105.936V49.6601C105.936 51.3826 106.382 52.5387 108.001 52.5387C108.775 52.5387 109.244 52.468 109.666 52.3264L109.784 54.332C109.268 54.5443 108.376 54.7331 107.32 54.7331C106.054 54.7331 105.022 54.3084 104.412 53.5769C103.661 52.7511 103.379 51.4298 103.379 49.8725V42.3928H101.08V40.3872H103.379V37.721L105.936 36.9895Z" fill="#A0CF67"/>
<path d="M119.425 54.733C115.226 54.733 112.012 51.8072 112.012 47.5129C112.012 42.959 115.343 40.0332 119.683 40.0332C124.187 40.0332 127.143 43.1478 127.143 47.2061C127.143 52.3263 123.202 54.733 119.472 54.733H119.425V54.733ZM119.495 52.7982C122.099 52.7982 124.398 50.8398 124.398 47.3241C124.398 44.8702 122.944 41.9916 119.589 41.9916C116.281 41.9916 114.686 44.6107 114.686 47.4421C114.686 50.769 116.891 52.7982 119.495 52.7982Z" fill="#A0CF67"/>
<path d="M137.394 44.9881C137.394 43.1713 137.371 41.7556 137.277 40.3634H139.576L139.67 43.2893H139.764C140.491 41.2365 142.133 40.0095 143.963 40.0095C144.268 40.0095 144.479 40.0331 144.737 40.1039V42.5342C144.432 42.4634 144.15 42.4398 143.728 42.4398C141.805 42.4398 140.491 43.8083 140.092 45.8139C140.022 46.1679 139.975 46.5926 139.975 46.9701V54.3554H137.394V44.9881Z" fill="#A0CF67"/>
<path d="M149.032 47.9376C149.102 51.0993 151.425 52.6802 154.287 52.6802C156.374 52.6802 157.594 52.3263 158.673 51.9016L159.143 53.7656C158.228 54.1667 156.562 54.733 153.982 54.733C149.384 54.733 146.522 51.8308 146.522 47.6545C146.522 43.5017 149.196 40.0332 153.7 40.0332C158.814 40.0332 160.011 44.3747 160.011 46.7578C160.011 47.2769 159.987 47.678 159.917 47.9376H149.032ZM157.454 46.0264C157.477 44.823 156.914 41.8736 153.489 41.8736C150.533 41.8736 149.313 44.3039 149.055 46.0264H157.454Z" fill="#A0CF67"/>
<path d="M163.529 33.6389H166.157V54.3791H163.529V33.6389Z" fill="#A0CF67"/>
<path d="M177.088 54.733C172.889 54.733 169.675 51.8072 169.675 47.5129C169.675 42.959 173.006 40.0332 177.346 40.0332C181.851 40.0332 184.806 43.1478 184.806 47.2061C184.806 52.3263 180.865 54.733 177.135 54.733H177.088V54.733ZM177.159 52.7982C179.763 52.7982 182.062 50.8398 182.062 47.3241C182.062 44.8702 180.607 41.9916 177.253 41.9916C173.945 41.9916 172.35 44.6107 172.35 47.4421C172.35 50.769 174.555 52.7982 177.159 52.7982Z" fill="#A0CF67"/>
<path d="M199.28 53.8365C198.553 54.1668 196.887 54.7567 194.729 54.7567C190.131 54.7567 187.151 51.7365 187.151 47.5837C187.151 43.1714 190.389 40.0569 195.292 40.0569C197.028 40.0569 198.553 40.5052 199.327 40.9063L198.717 42.9119C197.99 42.5108 196.91 42.1333 195.292 42.1333C191.796 42.1333 189.802 44.4456 189.802 47.395C189.802 50.6275 192.148 52.6331 195.174 52.6331C196.864 52.6331 197.99 52.1848 198.764 51.8545L199.28 53.8365Z" fill="#A0CF67"/>
<path d="M213.285 50.9814C213.285 52.2319 213.356 53.4117 213.52 54.4027H211.15L210.892 52.5387H210.822C210.001 53.6476 208.335 54.7566 206.06 54.7566C202.916 54.7566 201.485 52.6094 201.485 50.7218C201.485 47.3713 204.535 45.3893 210.658 45.4601V45.2005C210.658 44.3039 210.4 41.9444 207.162 41.9444C205.708 41.9444 204.183 42.3691 203.081 43.1006L202.471 41.3545C203.808 40.5051 205.638 40.0332 207.514 40.0332C212.253 40.0332 213.238 43.3365 213.238 46.0264V50.9814H213.285ZM210.728 47.2769C207.444 47.2061 204.16 47.7724 204.16 50.3915C204.16 52.0196 205.309 52.8218 206.74 52.8218C208.875 52.8218 210.142 51.5241 210.587 50.3915C210.681 50.1083 210.728 49.8252 210.728 49.5893V47.2769Z" fill="#A0CF67"/>
<path d="M220.956 36.9895V40.3636H224.921V42.3692H220.956V49.6601C220.956 51.3826 221.402 52.5387 223.021 52.5387C223.795 52.5387 224.264 52.468 224.686 52.3264L224.804 54.332C224.288 54.5443 223.396 54.7331 222.34 54.7331C221.074 54.7331 220.041 54.3084 219.432 53.5769C218.681 52.7511 218.399 51.4298 218.399 49.8725V42.3928H216.1V40.3872H218.399V37.721L220.956 36.9895Z" fill="#A0CF67"/>
<path d="M229.449 37.7209C228.44 37.7209 227.783 36.9422 227.783 36.0456C227.783 35.149 228.487 34.3704 229.495 34.3704C230.504 34.3704 231.185 35.1254 231.185 36.0456C231.185 36.9422 230.528 37.7209 229.472 37.7209H229.449ZM228.158 54.3791V40.3635H230.786V54.3791H228.158Z" fill="#A0CF67"/>
<path d="M241.739 54.733C237.54 54.733 234.326 51.8072 234.326 47.5129C234.326 42.959 237.657 40.0332 241.997 40.0332C246.501 40.0332 249.457 43.1478 249.457 47.2061C249.457 52.3263 245.516 54.733 241.786 54.733H241.739V54.733ZM241.81 52.7982C244.414 52.7982 246.713 50.8398 246.713 47.3241C246.713 44.8702 245.258 41.9916 241.903 41.9916C238.596 41.9916 237 44.6107 237 47.4421C237 50.769 239.206 52.7982 241.81 52.7982Z" fill="#A0CF67"/>
<path d="M252.954 44.2095C252.954 42.8173 252.907 41.5432 252.836 40.3634H255.182L255.323 42.8645H255.394C256.097 41.496 257.904 40.0095 260.461 40.0095C262.361 40.0095 265.88 41.0713 265.88 46.3566V54.3554H263.252V46.5926C263.252 44.1387 262.22 42.1567 259.593 42.1567C257.693 42.1567 256.262 43.478 255.745 44.8937C255.628 45.2005 255.558 45.6488 255.558 46.0499V54.3554H252.93V44.2095H252.954Z" fill="#A0CF67"/>
<path d="M55.063 29.5561C55.8437 30.3413 55.8437 31.6312 55.063 32.4444L29.2461 58.4111C28.4655 59.1963 27.183 59.1963 26.3745 58.4111L0.58548 32.4444C-0.19516 31.6592 -0.19516 30.3693 0.58548 29.5561L26.4024 3.58937C27.183 2.8042 28.4655 2.8042 29.274 3.58937L55.063 29.5561Z" fill="#A0CF67"/>
<path d="M38.2795 12.703C33.2053 13.5723 28.5214 15.6474 24.5625 18.6479V5.44019L12.0165 18.059V43.9697L24.5625 56.5885V43.9136C24.5625 33.4259 33.0659 24.8732 43.493 24.8732C46.9223 24.8732 50.1285 25.7985 52.8886 27.3969L38.2795 12.703Z" fill="#141006"/>
<path fill-rule="evenodd" clip-rule="evenodd" d="M58.6871 22.8822C58.6871 25.9107 56.2337 28.3784 53.2227 28.3784C50.2116 28.3784 47.7582 25.9107 47.7582 22.8822C47.7582 19.8537 50.2116 17.386 53.2227 17.386C56.2337 17.386 58.6871 19.8537 58.6871 22.8822Z" fill="#F05133"/>
</g>
<defs>
<clipPath id="clip0">
<rect width="303" height="59" fill="white"/>
</clipPath>
</defs>
</svg>
